<svg xmlns="http://www.w3.org/2000/svg" xmlns:xlink="http://www.w3.org/1999/xlink" version="1.1" x="0px" y="0px" viewBox="0 0 100 100" style="enable-background:new 0 0 100 100;" xml:space="preserve"><g><path d="M89.8813477,20.1635742c0-1.0717773-0.4179688-2.0795898-1.1757812-2.8369141l-2.5556641-2.5556641   c-1.5644531-1.5649414-4.1098633-1.5649414-5.6743164,0l-9.6845703,9.6845703l-1.3139648-1.3139648   c-0.1171875-1.1850586-0.6381836-2.3041992-1.4804688-3.1459961c-2.0175781-2.0185547-5.3017578-2.0185547-7.3193359,0   c-2.0180664,2.0180664-2.0180664,5.3012695,0,7.3193359c0.8422852,0.8422852,1.9609375,1.3632812,3.1455078,1.4804688   l1.314209,1.314209L50,45.246582L34.8630371,30.1096191l1.314209-1.314209   c1.1845703-0.1171875,2.3037109-0.6381836,3.1455078-1.4804688c2.0180664-2.0180664,2.0180664-5.3012695,0-7.3193359   c-2.0175781-2.0185547-5.3017578-2.0185547-7.3193359,0c-0.8422852,0.8417969-1.3632812,1.9609375-1.4804688,3.1459961   l-1.3139648,1.3139038l-9.6845703-9.6849976c-1.5654297-1.5634766-4.1108398-1.5639648-5.6743164,0.0004883l-2.5556641,2.5551758   c-0.7578125,0.7578125-1.1757812,1.765625-1.1757812,2.8374023c0,1.0722656,0.4179688,2.0800781,1.1757812,2.8374023   l9.6843262,9.6843262l-1.3122559,1.3122559c-1.1928711,0.112793-2.2915039,0.6264648-3.1474609,1.4824219   c-0.9775391,0.9775391-1.5161133,2.2773438-1.5161133,3.659668c0,1.3828125,0.5385742,2.6826172,1.5161133,3.659668   c1.0087891,1.0092773,2.3344727,1.5136719,3.659668,1.5136719s2.6508789-0.5043945,3.659668-1.5136719   c0.8422852-0.8417969,1.3632812-1.9604492,1.4804688-3.1455078l1.314209-1.314209l15.1369629,15.1369629L24.8222656,70.4243164   l-6.1137695,6.1137695c-0.2431641,0.2426758-0.3955078,0.5620117-0.4311523,0.9038086L17.559082,84.269043   c-0.0473633,0.449707,0.1108398,0.8974609,0.4311523,1.2172852c0.2827148,0.2827148,0.6650391,0.4394531,1.0605469,0.4394531   c0.0522461,0,0.1044922-0.0029297,0.1567383-0.0083008l6.8271484-0.7182617   c0.3417969-0.0356445,0.6611328-0.1879883,0.9038086-0.4311523l6.1142578-6.1137695   c0.0877075-0.0876465,0.1358643-0.1954956,0.1973267-0.2969971c0.1008911-0.0612183,0.2081909-0.1090088,0.2953491-0.196167   L50,61.706543l17.4257812,17.4257812l6.1137695,6.1142578c0.2426758,0.2431641,0.5620117,0.3955078,0.9038086,0.4311523   l6.8276367,0.7182617c0.0522461,0.0053711,0.1044922,0.0083008,0.1567383,0.0083008   c0.3955078,0,0.777832-0.1567383,1.0605469-0.4394531c0.3203125-0.3198242,0.4785156-0.7675781,0.4311523-1.2172852   l-0.7182617-6.8271484c-0.0356445-0.3417969-0.1879883-0.6611328-0.4311523-0.9038086l-6.1142578-6.1142578   c-0.0873413-0.0873413-0.1948242-0.1352539-0.2959595-0.1965942c-0.0613403-0.1011963-0.109314-0.2087402-0.1967163-0.2960815   L58.2299805,53.4765625l15.1369629-15.1369629l1.314209,1.314209c0.1171875,1.1850586,0.6381836,2.3037109,1.4804688,3.1455078   c1.0087891,1.0092773,2.3339844,1.5136719,3.659668,1.5136719c1.3251953,0,2.6508789-0.5043945,3.659668-1.5131836   c0.9775391-0.9775391,1.5161133-2.2773438,1.5161133-3.6601562c0-1.3823242-0.5385742-2.6821289-1.5161133-3.659668   c-0.855957-0.8564453-1.9545898-1.3696289-3.1474609-1.4824219l-1.3122559-1.3121948l9.6843262-9.6838989   C89.4633789,22.2436523,89.8813477,21.2358398,89.8813477,20.1635742z M13.1186523,20.1635742   c0-0.2700195,0.1054688-0.5244141,0.296875-0.7158203l2.5556641-2.5556641c0.3945312-0.3945312,1.0375977-0.3945312,1.4321289,0   l1.4916382,1.4916382l-3.9877319,3.9874268l-1.4916992-1.4917603   C13.2241211,20.6884766,13.1186523,20.434082,13.1186523,20.1635742z M16.3212891,23.7852783l3.9877319-3.9874878   l6.7788086,6.7788086l-3.987854,3.9876709L16.3212891,23.7852783z M22.78125,37.9492188   c-0.2944336,0.2944336-0.4536133,0.6977539-0.4384766,1.1142578c0.0219727,0.6157227-0.2001953,1.1889648-0.6254883,1.6147461   c-0.8486328,0.8476562-2.2285156,0.8481445-3.0771484-0.0004883c-0.4111328-0.4106445-0.637207-0.956543-0.637207-1.5380859   c0-0.5810547,0.2265625-1.1274414,0.637207-1.5385742c0.40625-0.40625,0.9482422-0.6269531,1.5336914-0.6269531   c0.0273438,0,0.0546875,0.0004883,0.0825195,0.0014648c0.4106445,0.0117188,0.8188477-0.1445312,1.1132812-0.4384766   l11.690918-11.690918c0.2944336-0.2944336,0.4536133-0.6977539,0.4384766-1.1142578   c-0.0219727-0.6162109,0.2001953-1.1894531,0.6254883-1.6152344c0.8486328-0.8476562,2.2285156-0.8476562,3.0771484,0   c0.8481445,0.8486328,0.8481445,2.2285156,0,3.0771484c-0.4248047,0.425293-0.987793,0.6455078-1.6152344,0.6254883   c-0.4331055-0.0136719-0.8203125,0.1445312-1.1142578,0.4384766L22.78125,37.9492188z M31.4243164,76.0400391   c-0.0877075,0.0876465-0.1358643,0.1954956-0.1973267,0.2969971c-0.1008911,0.0612183-0.2081299,0.1089478-0.2953491,0.196167   l-5.7387695,5.7382812l-4.456543,0.46875l0.46875-4.456543l5.7382812-5.7382812l16.9477539-16.9477539l1.2868652,1.2868652   L25.9350586,76.1279297c-0.390625,0.390625-0.390625,1.0234375,0,1.4140625   c0.1953125,0.1953125,0.4511719,0.2929688,0.7070312,0.2929688s0.5117188-0.0976562,0.7070312-0.2929688L46.592041,58.298584   l1.2868652,1.2868652L31.4243164,76.0400391z M73.3379517,72.727356c0.0613403,0.1011963,0.109314,0.2087402,0.1967163,0.2960815   l5.7387695,5.7387695l0.46875,4.456543L75.2851562,82.75l-5.7382812-5.7387695L28.9628906,36.4272461l3.987793-3.987793   l40.0913086,40.0913086C73.1293335,72.618103,73.2368164,72.6660156,73.3379517,72.727356z M56.1088867,51.3554688   l-1.2868652-1.2868652l11.7463379-11.7458496c0.390625-0.390625,0.390625-1.0234375,0-1.4140625s-1.0234375-0.390625-1.4140625,0   L53.407959,48.654541l-1.2868652-1.2868652l14.9282227-14.9282227l3.987793,3.987793L56.1088867,51.3554688z    M81.3598633,37.6010742c0.4106445,0.4111328,0.637207,0.9575195,0.637207,1.5385742   c0,0.581543-0.2260742,1.1274414-0.637207,1.5385742c-0.8486328,0.8476562-2.2285156,0.8476562-3.0771484,0   c-0.425293-0.4257812-0.6474609-0.9990234-0.6254883-1.6147461c0.0151367-0.4165039-0.144043-0.8198242-0.4384766-1.1142578   L65.527832,26.2578125c-0.2817383-0.2817383-0.6635742-0.4394531-1.0605469-0.4394531   c-0.0175781,0-0.0356445,0.0004883-0.0537109,0.0009766c-0.6245117,0.0195312-1.1894531-0.2001953-1.6152344-0.6254883   c-0.8481445-0.8486328-0.8481445-2.2285156,0-3.0771484c0.8486328-0.8476562,2.2285156-0.8476562,3.0771484,0   c0.425293,0.4257812,0.6474609,0.9990234,0.6254883,1.6152344c-0.0151367,0.4165039,0.144043,0.8198242,0.4384766,1.1142578   l11.690918,11.690918c0.2939453,0.2939453,0.6933594,0.4477539,1.1132812,0.4384766   C80.3652344,36.9555664,80.9345703,37.1762695,81.3598633,37.6010742z M72.9122314,26.5765991l6.7789307-6.7786255   l3.9877319,3.9874878L76.9000854,30.56427L72.9122314,26.5765991z M86.5844727,20.8798828l-1.4915161,1.4915161   l-3.9877319-3.9874268l1.4914551-1.491394c0.3945312-0.3955078,1.0375977-0.3950195,1.4321289-0.0004883l2.5556641,2.5561523   c0.1914062,0.190918,0.296875,0.4453125,0.296875,0.715332C86.8813477,20.434082,86.7758789,20.6884766,86.5844727,20.8798828z"></path><path d="M33.4316406,36.9086914c-0.390625,0.390625-0.390625,1.0234375,0,1.4140625l39.6977539,39.6972656   c0.1953125,0.1953125,0.4511719,0.2929688,0.7070312,0.2929688s0.5117188-0.0976562,0.7070312-0.2929688   c0.390625-0.390625,0.390625-1.0234375,0-1.4140625L34.8457031,36.9086914   C34.4550781,36.5180664,33.8222656,36.5180664,33.4316406,36.9086914z"></path></g></svg>